<?xml version="1.0" encoding="UTF-8"?>
<svg width="100px" height="149px" viewBox="0 0 100 149" version="1.1" xmlns="http://www.w3.org/2000/svg" xmlns:xlink="http://www.w3.org/1999/xlink">
    <!-- Generator: Sketch 42 (36781) - http://www.bohemiancoding.com/sketch -->
    <title>logo</title>
    <desc>Created with Sketch.</desc>
    <defs></defs>
    <g id="Page-1" stroke="none" stroke-width="1" fill="none" fill-rule="evenodd">
        <g id="Guardians-FE-Challenge" transform="translate(-463.000000, -43.000000)" fill="#F06543">
            <path d="M555.308659,140.618849 C552.711636,140.493818 543.690885,138.237788 535.724268,114.337515 C535.105849,112.06633 534.429335,109.728209 533.695988,107.323995 C535.804675,107.91505 538.98686,108.614718 542.253661,108.614718 C545.816832,108.614718 549.478513,107.782021 551.950084,105.069649 C553.646631,103.208078 554.974822,101.51995 555.965808,99.9168595 C557.501541,103.299851 560.486708,111.090499 560.474078,120.530545 C560.464396,127.723402 558.723645,134.477599 555.308659,140.618849 L555.308659,140.618849 Z M538.622712,158.180854 C539.144727,156.872449 539.619592,155.284093 539.982476,153.356428 C541.179321,146.996268 540.861903,138.766539 539.043692,128.756907 C544.87468,139.634598 550.610527,142.395804 553.875223,143.005382 C550.253115,148.619987 545.14537,153.703736 538.622712,158.180854 L538.622712,158.180854 Z M531.005087,178.384926 C525.987852,186.416796 514.762011,189.044971 513.04273,189.405751 C511.314188,189.046655 500.05088,186.430688 495.003756,178.368508 C492.346533,174.124192 491.837568,169.003397 493.490755,163.148834 L493.781652,162.11996 L492.872336,161.690139 L492.901384,161.63878 C492.701418,161.524694 492.509452,161.407241 492.312012,161.292314 C491.40859,160.50424 489.511235,158.274311 488.500042,152.906401 C486.542487,142.51873 489.272961,127.745714 492.757409,114.905837 C492.994841,114.190172 493.230169,113.455984 493.465075,112.704114 C493.526959,121.444913 495.410001,128.365396 499.17861,133.711837 C500.113185,135.037502 501.243094,136.200247 502.519504,137.17692 L502.519504,152.735062 C498.029336,150.837707 495.311913,148.723968 494.433328,146.439312 C493.62589,144.34115 494.446379,142.249724 495.453783,140.301851 C496.117247,139.018284 496.564748,138.752225 496.664941,138.706339 C496.824071,138.788009 497.230738,139.227932 497.595306,140.175136 C498.023863,141.288627 497.948087,143.756409 497.800323,145.05008 L500.309361,145.339293 C500.35609,144.93431 500.743391,141.323148 499.952792,139.268346 C499.21313,137.346574 498.093746,136.248239 496.800917,136.177093 C494.810947,136.067639 493.603999,138.381342 493.209962,139.141631 C491.993331,141.494486 490.907203,144.309156 492.075843,147.346102 C493.349306,150.656265 497.033298,153.414523 503.33873,155.778744 L505.045381,156.418633 L505.045381,138.769906 C506.237596,139.379906 507.510217,139.847614 508.834198,140.164191 L508.834198,175.888938 C504.333084,173.988216 501.609767,171.87153 500.730341,169.586874 C499.925428,167.494606 500.742549,165.412441 501.745744,163.473409 C502.394052,162.220153 502.833976,161.93978 502.941747,161.886737 C503.10635,161.976826 503.498702,162.413382 503.864113,163.363954 C504.290565,164.472393 504.188688,166.955752 504.024506,168.260368 L506.530597,168.577365 C506.582378,168.168173 507.014303,164.518701 506.221177,162.457585 C505.468887,160.50003 504.381497,159.427374 503.077723,159.355387 C503.031415,159.35244 502.985949,159.351177 502.940484,159.351177 C501.033867,159.351177 499.885435,161.571844 499.501922,162.313189 C498.289501,164.657624 497.206742,167.462611 498.373276,170.493664 C499.646739,173.803406 503.336625,176.563769 509.653424,178.932621 L511.360075,179.57251 L511.360075,140.571278 C511.794947,140.609166 512.232345,140.636951 512.673531,140.642003 C512.744256,140.642845 512.813718,140.643266 512.884021,140.643266 C513.505808,140.643266 514.120017,140.60664 514.727912,140.543914 L514.727912,179.57251 L516.434142,178.932621 C522.749256,176.564611 526.438301,173.804669 527.711343,170.49619 C528.877456,167.465137 527.794697,164.658466 526.581434,162.313189 C526.189081,161.554584 524.996024,159.232882 523.00437,159.355387 C521.717015,159.426111 520.599314,160.527815 519.857127,162.457585 C519.064001,164.519543 519.499294,168.169015 519.551496,168.578628 L522.057166,168.259526 C521.892142,166.95491 521.788581,164.471972 522.214612,163.363954 C522.581286,162.410856 522.974902,161.974722 523.139505,161.886316 C523.246012,161.938096 523.687199,162.215943 524.337612,163.473409 C525.340807,165.413283 526.15877,167.497132 525.353857,169.588558 C524.474852,171.873214 521.753219,173.989058 517.253789,175.888938 L517.253789,140.09094 C518.580296,139.750789 519.849549,139.255717 521.042605,138.615407 L521.042605,156.418633 L522.748836,155.778744 C529.058898,153.412839 532.745417,150.652476 534.020143,147.34063 C535.188782,144.302841 534.104339,141.491118 532.888971,139.141631 C532.495776,138.381342 531.292195,136.06848 529.303067,136.177093 C528.013606,136.248239 526.897168,137.346574 526.157928,139.268346 C525.366907,141.32399 525.75926,144.935994 525.80641,145.340977 L528.315027,145.048396 C528.165159,143.755147 528.087278,141.288206 528.514993,140.174715 C528.877035,139.234668 529.279071,138.793481 529.438622,138.707601 C529.543025,138.756856 529.987579,139.030493 530.645149,140.301851 C531.65087,142.245935 532.470096,144.334414 531.662236,146.43384 C530.782389,148.72018 528.06244,150.836444 523.568483,152.735062 L523.568483,136.950854 C524.719862,136.032697 525.765996,134.961725 526.671523,133.737517 C530.188808,128.985078 532.061746,122.390433 532.274761,114.071877 L532.337487,113.999468 C532.327384,113.990628 532.30423,113.971263 532.276024,113.947267 C532.292021,113.268648 532.297494,112.579083 532.29118,111.877731 C532.617018,112.943651 532.944961,113.975893 533.27543,114.971089 C542.920072,150.460509 535.582819,159.613026 533.626527,161.328097 C533.449294,161.431237 533.277535,161.536482 533.098618,161.63878 L533.128087,161.69056 L532.219192,162.122064 L532.509247,163.148834 C534.164118,169.010974 533.6581,174.137242 531.005087,178.384926 L531.005087,178.384926 Z M472.135724,143.023484 C475.402947,142.412643 481.132058,139.649754 486.955889,128.788902 C485.137678,138.796007 484.821102,147.020685 486.017526,153.374109 C486.379147,155.291671 486.851907,156.87287 487.370975,158.176644 C480.858,153.704999 475.755728,148.628827 472.135724,143.023484 L472.135724,143.023484 Z M465.525924,120.631159 C465.491825,111.258891 468.436577,103.472453 469.990412,100.019579 C470.974242,101.591937 472.280962,103.24765 473.941306,105.069649 C476.413298,107.782442 480.074136,108.614718 483.637728,108.614718 C486.972728,108.614718 490.219744,107.885582 492.325905,107.286528 C491.583718,109.716843 490.899626,112.079801 490.274892,114.374561 C482.304907,138.282833 473.287103,140.519498 470.703131,140.641161 C467.296985,134.522643 465.551604,127.79539 465.525924,120.631159 L465.525924,120.631159 Z M471.150632,88.0923852 C472.818132,83.5062337 482.287226,79.4942984 485.795248,78.3353416 L485.866815,78.3096618 C486.506283,78.0545482 499.732198,72.6197019 504.898881,57.9296196 C505.323228,64.6316145 504.888777,74.3234062 499.531391,78.2195722 C498.024705,79.315382 496.659468,80.2790043 495.454625,81.1289621 C489.195079,85.5450378 486.053309,87.7614953 488.364908,91.9224574 C489.897273,94.6811365 491.678438,95.7264288 492.850866,96.1217286 L492.964531,104.445758 C490.044195,105.395909 480.154964,108.138591 475.80835,103.368471 C470.214373,97.2284839 469.12572,93.6594191 471.150632,88.0923852 L471.150632,88.0923852 Z M530.514646,96.1128881 L530.404349,104.205378 C528.334813,103.940582 519.70389,102.885607 513.053676,102.833406 C506.749507,102.785835 497.896306,103.872384 495.48704,104.185171 L495.377165,96.1276223 C499.200922,95.4035375 513.598002,93.1294058 530.514646,96.1128881 L530.514646,96.1128881 Z M512.882758,138.117388 C512.822979,138.117388 512.762779,138.116967 512.702579,138.116546 C509.924956,138.084131 507.274047,137.277534 505.045381,135.858412 L505.045381,133.225605 C505.279867,132.665282 506.094042,130.943896 507.439492,130.333476 C508.081907,130.041737 508.77526,130.053524 509.533866,130.358314 C509.967054,130.543966 510.222588,130.721619 510.493278,130.910218 C511.154216,131.370769 511.762111,131.723129 513.043993,131.723129 C514.390286,131.723129 515.026386,131.292467 515.587552,130.911481 C515.867924,130.72204 516.131879,130.542703 516.536861,130.368838 C517.318199,130.054366 518.008606,130.041737 518.648494,130.330529 C519.879439,130.884959 520.732343,132.46279 521.042605,133.21887 L521.042605,135.674023 C518.677963,137.256485 515.867924,138.117809 512.882758,138.117388 L512.882758,138.117388 Z M517.527847,114.209116 C518.475472,112.866612 519.647058,112.12653 521.109541,111.947614 C524.300987,111.554419 527.989189,113.893381 529.708049,115.150426 C529.379685,122.386644 527.689873,128.116176 524.641139,132.235461 C524.305197,132.689277 523.946522,133.118677 523.568483,133.523659 L523.568483,132.77221 L523.498179,132.570561 C523.450187,132.434585 522.304702,129.217038 519.700522,128.033664 C518.432111,127.457343 517.012147,127.454817 515.568187,128.03619 C514.915248,128.316142 514.484585,128.60788 514.170535,128.820896 C513.732716,129.117687 513.615263,129.197252 513.043993,129.197252 C512.452938,129.197252 512.354008,129.128211 511.936817,128.837735 C511.625292,128.620931 511.199261,128.32414 510.50254,128.025666 C509.08468,127.454817 507.664716,127.457343 506.395884,128.033243 C503.789178,129.215354 502.63822,132.43248 502.589808,132.568877 L502.519504,132.771368 L502.519504,133.793507 C502.058952,133.31359 501.628711,132.803784 501.243094,132.25651 C498.166996,127.892215 496.458661,122.317604 496.072623,115.37986 C497.946824,113.947267 501.828677,111.561155 504.987286,111.946772 C506.451874,112.124846 507.625144,112.864928 508.573611,114.209116 L510.637674,112.752527 C509.272858,110.81981 507.474855,109.705056 505.292496,109.439417 C501.845516,109.021385 498.229722,110.885903 495.984638,112.357648 C495.981691,110.536911 496.057468,108.634084 496.217861,106.63864 C499.04516,106.28165 507.268154,105.316344 513.03389,105.359283 C519.064422,105.406433 526.802869,106.301857 529.526607,106.640745 C529.680685,108.551151 529.756041,110.376518 529.765723,112.129898 C527.506747,110.700251 524.08292,109.039908 520.808962,109.439417 C518.626604,109.705056 516.8286,110.81981 515.464205,112.752527 L517.527847,114.209116 Z M499.71919,117.585414 L501.390058,119.479401 C501.552135,119.335847 505.417569,116.001268 509.456869,119.174612 L511.01744,117.188852 C506.480122,113.622734 501.642646,115.888867 499.71919,117.585414 M516.644716,119.174781 C520.649495,116.029221 524.550712,119.340647 524.715315,119.482517 L526.382394,117.585583 C524.458939,115.888193 519.622304,113.622481 515.084145,117.188599 L516.644716,119.174781 Z M533.040523,96.1217286 C534.213372,95.7264288 535.994116,94.6811365 537.526482,91.9224574 C539.83808,87.7614953 536.69631,85.5450378 530.436765,81.1289621 C529.232342,80.2790043 527.866684,79.315382 526.359998,78.2195722 C521.01019,74.328879 520.573213,64.6396131 520.995035,57.9363553 C526.16298,72.6218068 539.385106,78.0545482 540.024574,78.3096618 L540.096141,78.3353416 C543.604164,79.4942984 553.073257,83.5062337 554.740757,88.0923852 C556.765669,93.6594191 555.677016,97.2284839 550.083039,103.368471 C545.737688,108.138591 535.847194,105.395909 532.926859,104.445758 L533.040523,96.1217286 Z M557.397138,97.0845089 C558.615032,93.9183215 558.446641,90.8910574 557.114661,87.2293771 C554.733601,80.6801978 541.940452,76.2885389 540.932206,75.9517552 C540.150026,75.6233912 524.297619,68.7294297 521.816787,50.5835261 L520.779914,43 L519.32543,50.5149064 C519.147776,51.4351677 515.076062,73.1362438 524.874361,80.2625861 C526.395782,81.3689204 527.769017,82.3380154 528.981017,83.1926039 C535.48431,87.7812813 536.446248,88.6657594 535.318865,90.6957229 C533.926685,93.2013933 532.435576,93.7074108 531.953554,93.8088669 C512.255499,90.1177179 496.063361,93.3773628 494.02161,93.8214962 C493.593895,93.7499297 492.027851,93.3142158 490.572946,90.6957229 C489.445141,88.6657594 490.40708,87.7812813 496.910372,83.1926039 C498.122372,82.3380154 499.495608,81.3689204 501.017028,80.2625861 C510.815748,73.1362438 506.744034,51.4351677 506.56596,50.5149064 L505.111475,43 L504.074603,50.5835261 C501.592928,68.7374283 485.727892,75.6297059 484.959604,75.9517552 C483.953884,76.2876969 471.15821,80.6793559 468.776728,87.2289561 C467.428752,90.9352603 467.274673,93.991993 468.541401,97.1998573 C467.553361,99.0765843 462.983207,108.413911 463.000046,120.533913 C463.01015,128.374658 464.957601,135.730013 468.787674,142.394541 C473.421396,150.458404 480.837793,157.501814 490.823849,163.346694 C489.264541,169.553617 489.949054,175.054557 492.862654,179.708486 C498.897817,189.348918 512.255499,191.835224 512.821295,191.936259 L513.043993,191.976252 L513.266692,191.936259 C513.829541,191.835224 527.121971,189.353549 533.140295,179.734587 C536.055579,175.075606 536.738408,169.565825 535.176153,163.346694 C545.162209,157.501814 552.579027,150.458404 557.212328,142.394541 C561.04198,135.730013 562.989431,128.374658 562.999956,120.533913 C563.016795,108.140275 558.237835,98.6564467 557.397138,97.0845089 L557.397138,97.0845089 Z" id="logo"></path>
        </g>
    </g>
</svg>